PathFileType	4	(X/Y/Z)	H:\MAC\Pilotos\Biomecanica2_gait_2020\Trimmed_walk1.trc
DataRate	CameraRate	NumFrames	NumMarkers	Units	OrigDataRate	OrigDataStartFrame	OrigNumFrames
150.00	150.00	       6	28	mm	150.00	92	       364
Frame#	Time	R.ASIS			L.ASIS			R.PSIS			L.PSIS			L.Iliac.Crest			R.Iliac.Crest			R.GTR			R.Knee			R.HF			R.TT			R.Ankle			R.Heel			R.MT1			R.MT5			L.GTR			L.Knee			L.HF			L.TT			L.Ankle			L.Heel			L.MT1			L.MT5			R.Knee.Medial			R.Ankle.Medial			R.MT2			L.Knee.Medial			L.Ankle.Medial			L.MT2			
		X1	Y1	Z1	X2	Y2	Z2	X3	Y3	Z3	X4	Y4	Z4	X5	Y5	Z5	X6	Y6	Z6	X7	Y7	Z7	X8	Y8	Z8	X9	Y9	Z9	X10	Y10	Z10	X11	Y11	Z11	X12	Y12	Z12	X13	Y13	Z13	X14	Y14	Z14	X15	Y15	Z15	X16	Y16	Z16	X17	Y17	Z17	X18	Y18	Z18	X19	Y19	Z19	X20	Y20	Z20	X21	Y21	Z21	X22	Y22	Z22	X23	Y23	Z23	X24	Y24	Z24	X25	Y25	Z25	X26	Y26	Z26	X27	Y27	Z27	X28	Y28	Z28	

92	0.607	548.53784	1035.35962	-415.05032	536.84015	1034.11121	-185.66179	354.28339	1065.17578	-348.89426	352.10507	1067.72693	-251.15767	458.86780	1095.28467	-146.26228	457.74313	1093.55017	-465.16187	463.13553	958.97424	-492.43219	618.99402	552.24866	-450.20258	621.47272	486.90424	-456.66763	697.05182	472.01089	-413.86871	645.02301	84.04922	-429.59280	597.35919	56.20618	-372.74722	812.51935	67.68667	-382.31427	765.16089	47.12156	-451.12283	449.17929	941.08301	-126.95000	365.25278	533.86993	-187.99565	344.48788	473.67816	-189.48492	410.86118	435.07480	-235.89445	274.83621	83.58971	-228.76678	222.25923	52.81137	-285.09958	443.97287	43.66899	-286.43518	395.49094	32.76974	-205.09511	640.76099	545.25635	-318.43869	672.56232	108.09592	-343.18573	806.57013	58.16900	-411.39987	398.17447	523.69092	-313.77274	315.67084	97.75680	-315.79062	444.63300	35.05392	-247.81490	
93	0.613	556.21790	1034.60352	-414.95825	543.85260	1033.31506	-185.67305	361.82867	1064.37463	-349.27084	359.29333	1067.00574	-251.56651	465.87863	1094.55957	-146.50432	465.49139	1092.65149	-465.26233	471.04938	957.98041	-492.49112	625.82123	550.54535	-449.35129	629.87378	485.10864	-455.65125	705.75085	471.82761	-413.01318	667.42432	83.02998	-430.45969	620.84576	53.50927	-373.55164	835.74915	71.66269	-383.91074	788.79419	49.89174	-452.67697	455.65503	940.69098	-127.21632	368.07593	534.33490	-188.43521	346.92825	474.24762	-190.03850	413.91797	434.74814	-235.66193	274.84671	84.44176	-229.30856	222.58511	53.97787	-285.97400	444.15082	43.69559	-286.25778	395.20395	32.78160	-205.25020	646.99182	543.29608	-316.97760	694.32861	107.59967	-344.09143	830.11414	61.48959	-412.79977	402.11749	523.74609	-313.92896	316.44080	98.34924	-316.17773	444.68451	35.08757	-247.96585	
94	0.620	564.05060	1033.79651	-414.89554	550.30939	1031.93469	-185.68559	369.39282	1063.52930	-349.67343	366.48633	1066.25403	-252.07367	472.86081	1093.77356	-146.74947	473.15781	1091.67212	-465.41791	479.01422	956.87457	-492.62589	632.72595	548.83380	-448.46167	638.24341	483.48761	-454.65500	714.47272	471.71729	-411.93771	688.94147	82.63614	-431.42471	643.47260	51.76335	-374.54312	858.24005	75.80943	-385.21967	811.46710	53.10152	-453.92133	462.08395	940.22821	-127.46691	371.14001	534.88507	-189.02356	349.20319	474.85239	-190.38210	416.30859	434.89688	-235.82805	275.14987	85.15954	-229.93518	222.86661	55.03340	-286.85431	444.31012	43.72135	-286.11499	394.97266	32.80221	-205.37427	652.96167	541.36688	-315.53235	715.52264	107.61900	-344.97153	852.66223	65.64314	-414.19330	406.10754	523.70148	-314.13925	317.14645	98.88519	-316.50742	444.68054	35.08353	-247.86208	
95	0.627	571.80682	1032.97388	-414.86179	557.99005	1031.28381	-185.65331	377.07672	1062.61157	-350.16394	373.73087	1065.47766	-252.62428	479.83472	1093.01379	-147.00435	481.04584	1090.59375	-465.63495	487.05649	955.69440	-492.77127	639.72644	547.22687	-447.76160	646.57617	481.99985	-453.80762	723.16516	471.26068	-410.52304	709.86395	82.47586	-431.87830	665.41547	49.93771	-374.92545	879.49841	80.21816	-386.43457	833.23492	56.57736	-454.97775	468.58124	939.67767	-127.76145	374.73779	534.96179	-189.34143	352.68991	475.11508	-191.05113	419.29617	434.70523	-235.86443	275.24002	85.96558	-230.33281	223.17619	56.17909	-287.55978	444.47284	43.73016	-285.96332	394.77783	32.81821	-205.48341	658.71942	539.36462	-314.20795	735.66608	108.12220	-345.46249	874.17133	69.99050	-415.33365	410.33707	523.58258	-314.40918	317.83243	99.43628	-316.81348	444.69162	35.07337	-247.78542	
96	0.633	579.70099	1031.96045	-414.88095	565.47430	1030.52283	-185.62476	384.83878	1061.69861	-350.71286	381.16757	1064.71045	-253.26352	486.84598	1092.19446	-147.27937	488.99841	1089.49866	-465.95041	495.27002	954.49036	-493.05725	646.73102	545.64667	-447.22202	654.98383	480.62366	-453.06238	731.75055	471.39551	-409.20462	729.82788	82.89435	-432.50732	686.14014	49.21547	-375.82059	899.80756	84.58970	-387.40176	853.85876	60.29427	-455.79645	475.12170	939.07373	-128.09100	378.62192	535.11340	-189.71652	356.03452	475.46765	-191.50589	422.57327	434.43677	-235.97470	275.53091	86.78781	-230.73344	223.45863	57.39862	-288.14127	444.59384	43.73115	-285.86163	394.59756	32.84364	-205.57603	664.33716	537.35693	-313.00607	754.84521	109.01854	-346.05075	894.67004	74.84577	-416.23218	414.71442	523.37964	-314.68985	318.50668	99.99044	-317.06659	444.69110	35.06116	-247.72285	
97	0.640	587.68671	1030.65039	-414.77487	572.76556	1029.62292	-185.65097	392.69333	1060.73645	-351.37030	388.60367	1063.90308	-253.90245	493.89523	1091.36951	-147.57373	497.10410	1088.37207	-466.42667	503.43054	953.23322	-493.34927	653.94678	544.11920	-447.17682	663.42719	479.34448	-452.44540	740.27563	471.58160	-407.95139	748.88550	83.57275	-433.03860	706.13123	48.38852	-376.26459	919.06464	88.72958	-387.74203	873.82166	63.73963	-456.28833	481.66418	938.42957	-128.43701	382.65775	535.19568	-190.02861	359.72055	475.72949	-191.79662	425.95743	434.04675	-236.05876	276.05316	87.57179	-231.14354	223.75432	58.63188	-288.64404	444.71628	43.70427	-285.76685	394.45300	32.85547	-205.68134	669.85205	535.36041	-311.99655	773.21545	110.36235	-346.34854	914.40442	78.88758	-416.69131	419.26459	523.06226	-314.78079	319.18002	100.55943	-317.25244	444.70599	35.02081	-247.63116	
